<?xml version="1.0" encoding="UTF-8" standalone="no" ?>
<!DOCTYPE svg PUBLIC "-//W3C//DTD SVG 1.1//EN" "http://www.w3.org/Graphics/SVG/1.1/DTD/svg11.dtd">
<svg xmlns="http://www.w3.org/2000/svg" xmlns:xlink="http://www.w3.org/1999/xlink" version="1.1" width="1080" height="1080" viewBox="0 0 1080 1080" xml:space="preserve">
<desc>Created with Fabric.js 5.2.4</desc>
<defs>
</defs>
<g transform="matrix(1 0 0 1 540 540)" id="5a7d3c79-d3af-4740-8698-e288561eeb70"  >
<rect style="stroke: none; stroke-width: 1; stroke-dasharray: none; stroke-linecap: butt; stroke-dashoffset: 0; stroke-linejoin: miter; stroke-miterlimit: 4; fill: rgb(177,179,204); fill-rule: nonzero; opacity: 1;" vector-effect="non-scaling-stroke"  x="-540" y="-540" rx="0" ry="0" width="1080" height="1080" />
</g>
<g transform="matrix(1 0 0 1 540 540)" id="adc27c7e-e275-45da-af0e-a04a1ea18b23"  >
</g>
<g transform="matrix(1 0 0 1 540 540)"  >
<g style="" vector-effect="non-scaling-stroke"   >
		<g transform="matrix(0.13 0 0 -0.13 -173.12 0)"  >
<path style="stroke: none; stroke-width: 1; stroke-dasharray: none; stroke-linecap: butt; stroke-dashoffset: 0; stroke-linejoin: miter; stroke-miterlimit: 4; fill: rgb(0,0,0); fill-rule: nonzero; opacity: 1;" vector-effect="non-scaling-stroke"  transform=" translate(-2150.04, -3609.03)" d="M 2735 6176 C 2556 6128 2357 6060 2342 6041 C 2331 6029 2329 5989 2332 5867 L 2337 5710 L 2231 5650 C 2173 5617 2091 5568 2050 5541 L 1975 5492 L 1945 5509 C 1929 5519 1866 5557 1806 5593 C 1746 5630 1691 5660 1685 5660 C 1653 5660 1260 5254 1260 5221 C 1260 5212 1296 5144 1340 5070 L 1419 4936 L 1391 4885 C 1376 4858 1330 4777 1289 4707 L 1215 4579 L 1053 4582 C 939 4584 888 4582 879 4573 C 866 4560 783 4273 744 4106 C 719 3997 719 3996 738 3971 C 749 3957 810 3919 874 3886 L 990 3827 L 987 3611 L 983 3395 L 934 3370 C 906 3356 870 3340 854 3333 C 754 3291 709 3268 704 3255 C 692 3224 774 2834 821 2695 C 838 2646 850 2643 1016 2641 C 1154 2640 1152 2641 1190 2550 C 1202 2520 1237 2447 1266 2388 L 1320 2280 L 1235 2161 C 1188 2096 1150 2033 1150 2021 C 1150 2009 1181 1964 1222 1918 C 1337 1786 1548 1580 1569 1580 C 1579 1580 1640 1612 1704 1650 C 1768 1689 1825 1720 1830 1720 C 1836 1720 1864 1703 1893 1682 C 1922 1661 2000 1607 2068 1562 L 2190 1480 L 2190 1337 C 2190 1259 2194 1190 2198 1184 C 2209 1166 2237 1155 2382 1106 C 2551 1050 2702 1010 2753 1010 C 2787 1010 2792 1014 2816 1058 C 2830 1084 2863 1143 2888 1190 L 2935 1275 L 3187 1275 C 3373 1275 3443 1279 3452 1288 C 3461 1297 3456 1300 3424 1300 C 3403 1300 3345 1307 3295 1316 C 3246 1324 3180 1335 3150 1340 C 3088 1351 2885 1407 2795 1439 C 2691 1476 2439 1605 2330 1677 C 2155 1793 2012 1916 1887 2058 C 1487 2515 1296 3078 1338 3674 C 1363 4020 1428 4266 1571 4551 C 1873 5152 2392 5593 3040 5798 C 3165 5837 3357 5872 3524 5885 C 3562 5888 3595 5892 3597 5894 C 3606 5903 3382 5912 3250 5909 L 3109 5905 L 3033 6040 C 2992 6114 2951 6183 2942 6193 C 2921 6217 2876 6213 2735 6176 z" stroke-linecap="round" />
</g>
		<g transform="matrix(0.13 0 0 -0.13 157.26 -30.5)"  >
<path style="stroke: none; stroke-width: 1; stroke-dasharray: none; stroke-linecap: butt; stroke-dashoffset: 0; stroke-linejoin: miter; stroke-miterlimit: 4; fill: rgb(0,0,0); fill-rule: nonzero; opacity: 1;" vector-effect="non-scaling-stroke"  transform=" translate(-4627.85, -3837.8)" d="M 4165 5517 C 4036 5386 3970 5225 3970 5041 C 3970 4857 4029 4729 4186 4576 C 4274 4489 4295 4463 4326 4395 L 4364 4315 L 4361 3308 C 4358 2164 4353 2238 4439 2150 C 4571 2013 4803 2074 4859 2261 C 4867 2286 4870 2605 4870 3286 C 4870 4104 4873 4283 4884 4321 C 4914 4421 4951 4473 5070 4590 C 5195 4712 5230 4764 5266 4886 C 5294 4977 5292 5154 5261 5245 C 5227 5351 5174 5438 5099 5513 C 5042 5570 5026 5581 5003 5578 L 4975 5575 L 4970 5355 C 4964 5081 4968 5091 4801 4982 C 4704 4918 4677 4906 4635 4902 C 4587 4899 4580 4901 4485 4965 C 4430 5002 4372 5044 4357 5058 C 4302 5109 4300 5122 4300 5350 C 4300 5564 4295 5600 4263 5600 C 4254 5600 4210 5563 4165 5517 z M 4687 2435 C 4720 2402 4722 2397 4718 2348 C 4711 2282 4679 2250 4619 2250 C 4558 2250 4520 2292 4520 2357 C 4521 2461 4616 2506 4687 2435 z" stroke-linecap="round" />
</g>
		<g transform="matrix(0.13 0 0 -0.13 -133.39 -49.91)"  >
<path style="stroke: none; stroke-width: 1; stroke-dasharray: none; stroke-linecap: butt; stroke-dashoffset: 0; stroke-linejoin: miter; stroke-miterlimit: 4; fill: rgb(0,0,0); fill-rule: nonzero; opacity: 1;" vector-effect="non-scaling-stroke"  transform=" translate(-2447.98, -3983.34)" d="M 3017 5340 C 2892 5261 2788 5128 2483 4657 C 2365 4475 2267 4323 2264 4321 C 2262 4319 2248 4327 2234 4341 C 2213 4360 2210 4370 2215 4400 C 2226 4467 2170 4550 2099 4570 C 2054 4583 1815 4583 1767 4569 C 1719 4556 1663 4507 1645 4462 C 1613 4388 1634 4287 1689 4242 C 1740 4200 1783 4190 1916 4190 C 2029 4190 2056 4193 2116 4214 C 2154 4228 2187 4234 2188 4229 C 2190 4224 2166 4190 2133 4154 C 1953 3953 1912 3894 1872 3775 C 1832 3655 1825 3577 1825 3280 C 1825 3030 1827 2989 1843 2945 C 1897 2798 2032 2660 2160 2622 C 2179 2616 2268 2608 2358 2605 L 2521 2598 L 2578 2657 C 2610 2689 2692 2774 2760 2846 C 2829 2918 2896 2983 2910 2991 C 2924 2998 2988 3009 3054 3015 L 3172 3025 L 3215 3146 C 3238 3213 3260 3272 3264 3278 C 3274 3295 3247 3308 3184 3315 C 3151 3318 3119 3325 3114 3328 C 3103 3337 3103 3327 3102 3534 L 3100 3708 L 2983 3712 C 2849 3717 2736 3749 2620 3815 C 2584 3835 2503 3876 2440 3906 C 2377 3937 2323 3963 2321 3966 C 2319 3968 2325 3979 2336 3991 C 2362 4020 2384 4014 2573 3921 C 2797 3811 2839 3799 2981 3802 L 3095 3805 L 3095 4025 L 3095 4245 L 2787 4250 L 2479 4255 L 2681 4555 C 2886 4860 2936 4930 2949 4930 C 2953 4930 2969 4903 2985 4870 C 3014 4809 3014 4809 3055 4812 L 3095 4815 L 3098 5084 C 3101 5400 3103 5395 3017 5340 z M 2272 3796 C 2362 3763 2453 3715 2547 3654 C 2689 3560 2750 3500 2750 3455 C 2750 3426 2695 3363 2647 3337 C 2534 3277 2188 3354 2079 3462 C 1992 3549 1988 3675 2070 3759 C 2103 3793 2151 3817 2192 3819 C 2202 3820 2238 3809 2272 3796 z" stroke-linecap="round" />
</g>
		<g transform="matrix(0.13 0 0 -0.13 1.01 27.87)"  >
<path style="stroke: none; stroke-width: 1; stroke-dasharray: none; stroke-linecap: butt; stroke-dashoffset: 0; stroke-linejoin: miter; stroke-miterlimit: 4; fill: rgb(0,0,0); fill-rule: nonzero; opacity: 1;" vector-effect="non-scaling-stroke"  transform=" translate(-3456, -3400)" d="M 3430 4279 C 3367 4275 3291 4268 3263 4265 L 3210 4259 L 3210 4005 C 3210 3830 3214 3742 3222 3723 C 3244 3671 3299 3605 3354 3565 C 3384 3543 3409 3520 3410 3514 C 3410 3501 3306 3197 3245 3035 C 3225 2980 3199 2908 3187 2876 C 3168 2824 3161 2815 3128 2804 L 3090 2791 L 3090 2856 L 3090 2920 L 3008 2920 L 2926 2920 L 2774 2763 L 2622 2605 L 2654 2599 C 2671 2596 2773 2593 2880 2591 L 3075 2590 L 3094 2564 C 3115 2535 3160 2510 3191 2510 C 3228 2510 3298 2549 3322 2583 C 3339 2606 3345 2630 3346 2675 C 3347 2708 3351 2746 3355 2760 C 3363 2787 3483 3105 3504 3155 C 3511 3172 3532 3226 3550 3275 C 3597 3402 3596 3401 3667 3342 C 3808 3224 3880 3113 3925 2945 C 4000 2659 4067 2575 4236 2557 L 4277 2552 L 4283 2763 C 4287 2878 4290 3134 4290 3331 L 4290 3690 L 4218 3744 C 4089 3840 4088 3840 3870 3840 L 3680 3840 L 3680 3864 C 3680 3921 3677 3920 3871 3920 C 4077 3920 4115 3911 4218 3841 C 4252 3819 4282 3800 4285 3800 C 4288 3800 4289 3842 4288 3893 L 4285 3985 L 4176 4068 C 4009 4193 3930 4215 3843 4160 C 3779 4119 3747 4121 3699 4168 C 3672 4196 3659 4219 3654 4248 L 3647 4290 L 3596 4289 C 3568 4288 3493 4284 3430 4279 z" stroke-linecap="round" />
</g>
		<g transform="matrix(0.13 0 0 -0.13 282.44 82.2)"  >
<path style="stroke: none; stroke-width: 1; stroke-dasharray: none; stroke-linecap: butt; stroke-dashoffset: 0; stroke-linejoin: miter; stroke-miterlimit: 4; fill: rgb(0,0,0); fill-rule: nonzero; opacity: 1;" vector-effect="non-scaling-stroke"  transform=" translate(-5566.71, -2992.5)" d="M 5490 3934 C 5379 3922 5290 3912 5070 3890 C 5012 3884 4959 3877 4953 3875 C 4937 3870 4934 3260 4950 3260 C 4955 3260 4974 3279 4992 3301 C 5024 3342 5135 3440 5148 3440 C 5159 3440 5218 3272 5211 3263 C 5208 3259 5186 3242 5162 3226 C 5099 3183 5006 3079 4977 3018 C 4951 2966 4951 2961 4949 2713 L 4947 2461 L 4984 2385 C 5028 2295 5127 2185 5212 2129 C 5244 2109 5305 2079 5347 2064 C 5418 2037 5436 2035 5555 2036 C 5672 2036 5692 2039 5759 2064 C 5857 2101 5924 2145 6002 2224 C 6079 2303 6145 2414 6173 2513 C 6200 2610 6201 2768 6176 2865 C 6127 3051 5992 3220 5829 3298 C 5783 3320 5720 3344 5689 3350 C 5634 3362 5465 3359 5409 3345 C 5382 3338 5380 3343 5313 3526 C 5307 3542 5351 3558 5466 3581 C 5559 3600 5580 3601 5653 3590 C 5757 3575 5825 3556 5922 3514 C 6004 3477 6029 3473 6048 3492 C 6070 3514 6060 3538 6008 3585 C 5956 3632 5844 3702 5802 3715 C 5789 3719 5781 3725 5782 3728 C 5838 3832 5839 3870 5788 3920 C 5760 3948 5755 3950 5682 3949 C 5640 3948 5553 3941 5490 3934 z M 5638 3126 C 5829 3075 5960 2897 5960 2689 C 5960 2590 5939 2523 5884 2442 C 5735 2227 5453 2201 5265 2386 C 5212 2439 5166 2518 5154 2578 L 5148 2610 L 5267 2610 C 5385 2610 5387 2610 5400 2584 C 5423 2542 5488 2510 5553 2510 C 5600 2510 5615 2515 5651 2543 C 5787 2647 5752 2846 5590 2890 C 5553 2900 5551 2903 5508 3013 C 5483 3074 5465 3128 5467 3133 C 5474 3145 5581 3141 5638 3126 z M 5338 2955 L 5368 2875 L 5273 2872 C 5220 2871 5175 2872 5172 2875 C 5169 2877 5175 2897 5184 2919 C 5207 2969 5287 3057 5299 3044 C 5304 3039 5321 2999 5338 2955 z" stroke-linecap="round" />
</g>
		<g transform="matrix(0.13 0 0 -0.13 -21.32 134.22)"  >
<path style="stroke: none; stroke-width: 1; stroke-dasharray: none; stroke-linecap: butt; stroke-dashoffset: 0; stroke-linejoin: miter; stroke-miterlimit: 4; fill: rgb(0,0,0); fill-rule: nonzero; opacity: 1;" vector-effect="non-scaling-stroke"  transform=" translate(-3288.52, -2602.36)" d="M 3569 3143 C 3492 2934 3495 2945 3519 2911 C 3580 2826 3607 2689 3584 2588 C 3527 2344 3266 2206 3051 2306 C 3006 2326 2983 2330 2896 2330 C 2800 2330 2792 2328 2771 2306 C 2738 2271 2749 2242 2816 2181 C 2920 2086 3045 2040 3201 2040 C 3377 2040 3527 2105 3647 2234 C 3832 2432 3876 2713 3760 2955 C 3728 3022 3646 3127 3606 3153 C 3580 3170 3580 3170 3569 3143 z" stroke-linecap="round" />
</g>
		<g transform="matrix(0.13 0 0 -0.13 -166.91 150.49)"  >
<path style="stroke: none; stroke-width: 1; stroke-dasharray: none; stroke-linecap: butt; stroke-dashoffset: 0; stroke-linejoin: miter; stroke-miterlimit: 4; fill: rgb(0,0,0); fill-rule: nonzero; opacity: 1;" vector-effect="non-scaling-stroke"  transform=" translate(-2196.57, -2480.36)" d="M 1847 2762 C 1845 2758 1844 2672 1845 2570 C 1847 2366 1853 2342 1912 2274 C 1967 2211 2006 2201 2202 2199 C 2365 2196 2378 2198 2423 2219 C 2510 2262 2554 2345 2548 2462 L 2545 2525 L 2355 2530 C 2171 2535 2163 2536 2101 2564 C 2025 2600 1948 2658 1892 2722 C 1870 2749 1849 2767 1847 2762 z" stroke-linecap="round" />
</g>
</g>
</g>
<g transform="matrix(NaN NaN NaN NaN 0 0)"  >
<g style=""   >
</g>
</g>
<g transform="matrix(NaN NaN NaN NaN 0 0)"  >
<g style=""   >
</g>
</g>
<g transform="matrix(NaN NaN NaN NaN 0 0)"  >
<g style=""   >
</g>
</g>
<g transform="matrix(NaN NaN NaN NaN 0 0)"  >
<g style=""   >
</g>
</g>
<g transform="matrix(NaN NaN NaN NaN 0 0)"  >
<g style=""   >
</g>
</g>
<g transform="matrix(NaN NaN NaN NaN 0 0)"  >
<g style=""   >
</g>
</g>
</svg>