<?xml version="1.0" standalone="no"?>
<!DOCTYPE svg PUBLIC "-//W3C//DTD SVG 20010904//EN"
 "http://www.w3.org/TR/2001/REC-SVG-20010904/DTD/svg10.dtd">
<svg version="1.0" xmlns="http://www.w3.org/2000/svg"
 width="673.000000pt" height="673.000000pt" viewBox="0 0 673.000000 673.000000"
 preserveAspectRatio="xMidYMid meet">

<g transform="translate(0.000000,673.000000) scale(0.100000,-0.100000)"
fill="#000000" stroke="none">
<path d="M2735 6176 c-179 -48 -378 -116 -393 -135 -11 -12 -13 -52 -10 -174
l5 -157 -106 -60 c-58 -33 -140 -82 -181 -109 l-75 -49 -30 17 c-16 10 -79 48
-139 84 -60 37 -115 67 -121 67 -32 0 -425 -406 -425 -439 0 -9 36 -77 80
-151 l79 -134 -28 -51 c-15 -27 -61 -108 -102 -178 l-74 -128 -162 3 c-114 2
-165 0 -174 -9 -13 -13 -96 -300 -135 -467 -25 -109 -25 -110 -6 -135 11 -14
72 -52 136 -85 l116 -59 -3 -216 -4 -216 -49 -25 c-28 -14 -64 -30 -80 -37
-100 -42 -145 -65 -150 -78 -12 -31 70 -421 117 -560 17 -49 29 -52 195 -54
138 -1 136 0 174 -91 12 -30 47 -103 76 -162 l54 -108 -85 -119 c-47 -65 -85
-128 -85 -140 0 -12 31 -57 72 -103 115 -132 326 -338 347 -338 10 0 71 32
135 70 64 39 121 70 126 70 6 0 34 -17 63 -38 29 -21 107 -75 175 -120 l122
-82 0 -143 c0 -78 4 -147 8 -153 11 -18 39 -29 184 -78 169 -56 320 -96 371
-96 34 0 39 4 63 48 14 26 47 85 72 132 l47 85 252 0 c186 0 256 4 265 13 9 9
4 12 -28 12 -21 0 -79 7 -129 16 -49 8 -115 19 -145 24 -62 11 -265 67 -355
99 -104 37 -356 166 -465 238 -175 116 -318 239 -443 381 -400 457 -591 1020
-549 1616 25 346 90 592 233 877 302 601 821 1042 1469 1247 125 39 317 74
484 87 38 3 71 7 73 9 9 9 -215 18 -347 15 l-141 -4 -76 135 c-41 74 -82 143
-91 153 -21 24 -66 20 -207 -17z"/>
<path d="M4165 5517 c-129 -131 -195 -292 -195 -476 0 -184 59 -312 216 -465
88 -87 109 -113 140 -181 l38 -80 -3 -1007 c-3 -1144 -8 -1070 78 -1158 132
-137 364 -76 420 111 8 25 11 344 11 1025 0 818 3 997 14 1035 30 100 67 152
186 269 125 122 160 174 196 296 28 91 26 268 -5 359 -34 106 -87 193 -162
268 -57 57 -73 68 -96 65 l-28 -3 -5 -220 c-6 -274 -2 -264 -169 -373 -97 -64
-124 -76 -166 -80 -48 -3 -55 -1 -150 63 -55 37 -113 79 -128 93 -55 51 -57
64 -57 292 0 214 -5 250 -37 250 -9 0 -53 -37 -98 -83z m522 -3082 c33 -33 35
-38 31 -87 -7 -66 -39 -98 -99 -98 -61 0 -99 42 -99 107 1 104 96 149 167 78z"/>
<path d="M3017 5340 c-125 -79 -229 -212 -534 -683 -118 -182 -216 -334 -219
-336 -2 -2 -16 6 -30 20 -21 19 -24 29 -19 59 11 67 -45 150 -116 170 -45 13
-284 13 -332 -1 -48 -13 -104 -62 -122 -107 -32 -74 -11 -175 44 -220 51 -42
94 -52 227 -52 113 0 140 3 200 24 38 14 71 20 72 15 2 -5 -22 -39 -55 -75
-180 -201 -221 -260 -261 -379 -40 -120 -47 -198 -47 -495 0 -250 2 -291 18
-335 54 -147 189 -285 317 -323 19 -6 108 -14 198 -17 l163 -7 57 59 c32 32
114 117 182 189 69 72 136 137 150 145 14 7 78 18 144 24 l118 10 43 121 c23
67 45 126 49 132 10 17 -17 30 -80 37 -33 3 -65 10 -70 13 -11 9 -11 -1 -12
206 l-2 174 -117 4 c-134 5 -247 37 -363 103 -36 20 -117 61 -180 91 -63 31
-117 57 -119 60 -2 2 4 13 15 25 26 29 48 23 237 -70 224 -110 266 -122 408
-119 l114 3 0 220 0 220 -308 5 -308 5 202 300 c205 305 255 375 268 375 4 0
20 -27 36 -60 29 -61 29 -61 70 -58 l40 3 3 269 c3 316 5 311 -81 256z m-745
-1544 c90 -33 181 -81 275 -142 142 -94 203 -154 203 -199 0 -29 -55 -92 -103
-118 -113 -60 -459 17 -568 125 -87 87 -91 213 -9 297 33 34 81 58 122 60 10
1 46 -10 80 -23z"/>
<path d="M3430 4279 c-63 -4 -139 -11 -167 -14 l-53 -6 0 -254 c0 -175 4 -263
12 -282 22 -52 77 -118 132 -158 30 -22 55 -45 56 -51 0 -13 -104 -317 -165
-479 -20 -55 -46 -127 -58 -159 -19 -52 -26 -61 -59 -72 l-38 -13 0 65 0 64
-82 0 -82 0 -152 -157 -152 -158 32 -6 c17 -3 119 -6 226 -8 l195 -1 19 -26
c21 -29 66 -54 97 -54 37 0 107 39 131 73 17 23 23 47 24 92 1 33 5 71 9 85 8
27 128 345 149 395 7 17 28 71 46 120 47 127 46 126 117 67 141 -118 213 -229
258 -397 75 -286 142 -370 311 -388 l41 -5 6 211 c4 115 7 371 7 568 l0 359
-72 54 c-129 96 -130 96 -348 96 l-190 0 0 24 c0 57 -3 56 191 56 206 0 244
-9 347 -79 34 -22 64 -41 67 -41 3 0 4 42 3 93 l-3 92 -109 83 c-167 125 -246
147 -333 92 -64 -41 -96 -39 -144 8 -27 28 -40 51 -45 80 l-7 42 -51 -1 c-28
-1 -103 -5 -166 -10z"/>
<path d="M5490 3934 c-111 -12 -200 -22 -420 -44 -58 -6 -111 -13 -117 -15
-16 -5 -19 -615 -3 -615 5 0 24 19 42 41 32 41 143 139 156 139 11 0 70 -168
63 -177 -3 -4 -25 -21 -49 -37 -63 -43 -156 -147 -185 -208 -26 -52 -26 -57
-28 -305 l-2 -252 37 -76 c44 -90 143 -200 228 -256 32 -20 93 -50 135 -65 71
-27 89 -29 208 -28 117 0 137 3 204 28 98 37 165 81 243 160 77 79 143 190
171 289 27 97 28 255 3 352 -49 186 -184 355 -347 433 -46 22 -109 46 -140 52
-55 12 -224 9 -280 -5 -27 -7 -29 -2 -96 181 -6 16 38 32 153 55 93 19 114 20
187 9 104 -15 172 -34 269 -76 82 -37 107 -41 126 -22 22 22 12 46 -40 93 -52
47 -164 117 -206 130 -13 4 -21 10 -20 13 56 104 57 142 6 192 -28 28 -33 30
-106 29 -42 -1 -129 -8 -192 -15z m148 -808 c191 -51 322 -229 322 -437 0 -99
-21 -166 -76 -247 -149 -215 -431 -241 -619 -56 -53 53 -99 132 -111 192 l-6
32 119 0 c118 0 120 0 133 -26 23 -42 88 -74 153 -74 47 0 62 5 98 33 136 104
101 303 -61 347 -37 10 -39 13 -82 123 -25 61 -43 115 -41 120 7 12 114 8 171
-7z m-300 -171 l30 -80 -95 -3 c-53 -1 -98 0 -101 3 -3 2 3 22 12 44 23 50
103 138 115 125 5 -5 22 -45 39 -89z"/>
<path d="M3569 3143 c-77 -209 -74 -198 -50 -232 61 -85 88 -222 65 -323 -57
-244 -318 -382 -533 -282 -45 20 -68 24 -155 24 -96 0 -104 -2 -125 -24 -33
-35 -22 -64 45 -125 104 -95 229 -141 385 -141 176 0 326 65 446 194 185 198
229 479 113 721 -32 67 -114 172 -154 198 -26 17 -26 17 -37 -10z"/>
<path d="M1847 2762 c-2 -4 -3 -90 -2 -192 2 -204 8 -228 67 -296 55 -63 94
-73 290 -75 163 -3 176 -1 221 20 87 43 131 126 125 243 l-3 63 -190 5 c-184
5 -192 6 -254 34 -76 36 -153 94 -209 158 -22 27 -43 45 -45 40z"/>
</g>
</svg>
